<?xml version="1.0" encoding="utf-8"?>
<!-- Generator: Adobe Illustrator 25.2.1, SVG Export Plug-In . SVG Version: 6.00 Build 0)  -->
<svg version="1.1" id="Camada_1" xmlns="http://www.w3.org/2000/svg" xmlns:xlink="http://www.w3.org/1999/xlink" x="0px" y="0px"
	 viewBox="0 0 1920 1080" style="enable-background:new 0 0 1920 1080;" xml:space="preserve">
<style type="text/css">
	.st0{fill:#9FB68F;}
</style>
<g>
	<path class="st0" d="M414.81,634.36c-2.68,0.29-8.87,1.16-12.76,1.75c-15.04,2.38-24.85,3.55-39.04,9.39
		c-13.99,5.76-28.42,10.9-38.04,23.89c-11.09,14.98-15.95,31.06-10.15,49.42c0.51,1.7,1.58,3.03-0.1,5.62
		c-5.13,7.04-10.28,14.05-15.35,21.12c-0.85,1.18-1.17,3.17-2.91,2.98c-1.64-0.18-1.86-2.1-2.24-3.45
		c-3.62-12.85-8.2-25.37-14.91-36.9c-3.75-6.44-4.34-12.55-2.28-19.45c1.18-3.94,1.68-8.08,2.49-12.13
		c0.54-5.71,0.59-11.41-0.04-17.11c-1.94-9.7-4.67-23.04-19.58-36.66c-4.66-3.83-9.51-8.37-17.79-13.36
		c-10.9-6.57-23.9-11.87-31.06-14.31c-11.54-3.92-24.23-6.25-28.75-7.08c-12.19-2.25-25.03-3.8-27.97-4.04
		c-3-0.19-2.81-0.26-5.61-0.25c-2.58-0.02-3.06,1.27-3.09,3.07c0.23,1.59,0.84,7.63,1.86,14.35c0.95,6.22,2.3,13.1,2.71,15.61
		c3.92,23.89,12.06,46.01,25.5,66.19c6.12,9.19,12.64,18.24,21.37,24.87c9.92,7.53,21.82,10.6,34.38,11.02
		c3.6,0.12,4.61-0.78,4.36-4.35c-1.01-14.78-4.07-29.1-9.4-42.89c-3.06-7.9-6.63-15.6-9.97-23.39c5.95,3.32,9.35,8.67,12.83,13.8
		c19.41,28.55,34.69,59.15,44.38,92.35c4.98,17.09,23.12,17.77,35.19,12.09c7.77-3.66,10.24-11.85,13.72-18.79
		c12.26-24.4,29.13-44.94,50.3-62.04c1.36-1.21,4.56-3.61,4.27-3.34c-0.61,2.03-1.02,2.45-2.77,4.91c-3.19,4.8-6.7,9.41-9.49,14.43
		c-5.8,10.43-11.83,20.8-15.33,32.33c-1.53,5.05-0.38,6.65,4.55,6.55c18.15-0.35,31.33-10.05,41.49-23.76
		c16.85-22.75,21.74-49.59,24.41-77.03C420.45,635.19,419.1,633.64,414.81,634.36z"/>
	<path class="st0" d="M696.87,448.99v50.5h0v3.01c0,19.01,5.21,33.4,15.62,43.17c10.41,9.77,24.4,14.66,41.97,14.66
		c17.57,0,30.97-3.92,40.21-11.77c9.24-7.85,13.86-19.14,13.86-33.88c0-5.98-1.12-13.03-3.36-21.15h-6.89
		c-11.43,0-17.14-6.83-17.14-20.5v-24.19h22.91c2.99-4.27,5.29-9.45,6.89-15.54c1.6-6.09,2.4-12.01,2.4-17.78
		c0-12.71-3.1-23.76-9.29-33.16h-27.71V343.1c-10.36-2.24-20.88-3.36-31.56-3.36c-10.68,0-20.18,1.07-28.51,3.2
		c-0.86,2.03-1.6,4.11-2.24,6.25c-4.81,15.81-8.71,27.34-11.69,34.6c-10.68,7.9-19.06,13.78-25.15,17.62
		c-1.39,5.77-2.08,13.27-2.08,22.51c0,9.24,1.17,17.6,3.52,25.07H696.87z"/>
	<path class="st0" d="M921.43,704.6v-87.3c0-8.53-2.75-15.17-8.26-19.93c-5.51-4.76-13.87-7.14-25.08-7.14
		c-11.22,0-21.17,2.65-29.87,7.95V727.2c0,14.74,3.85,25.75,11.55,33.03c6.46,6.13,15.19,9.19,26.2,9.19
		c11.01,0,19.52-3.06,25.52-9.19c6-6.13,9-15.11,9-26.95v-2.24c0-1.16-0.04-1.94-0.12-2.36
		C924.41,724.96,921.43,716.93,921.43,704.6z"/>
	<path class="st0" d="M1004.16,631.46v-30.42c-8.03-1.74-16.19-2.61-24.46-2.61c-8.28,0-15.65,0.83-22.1,2.48
		c-0.66,1.57-1.24,3.19-1.74,4.84c-3.73,12.25-6.75,21.19-9.07,26.82c-8.28,6.13-14.78,10.68-19.5,13.66
		c-1.08,4.47-1.61,10.29-1.61,17.45c0,7.16,0.91,13.64,2.73,19.43h14.14v23.22h0.01v18.25c0,14.74,4.04,25.89,12.11,33.47
		c8.07,7.57,18.92,11.36,32.54,11.36c13.62,0,24.01-3.04,31.17-9.13c7.16-6.08,10.74-14.84,10.74-26.26c0-4.63-0.87-10.1-2.61-16.39
		h-5.34c-8.86,0-13.29-5.3-13.29-15.89v-18.75h17.76c2.32-3.31,4.1-7.33,5.34-12.04c1.24-4.72,1.86-9.31,1.86-13.78
		c0-9.85-2.4-18.42-7.2-25.71H1004.16z"/>
	<path class="st0" d="M1759.87,728.69c-5.96-3.72-8.94-11.75-8.94-24.09v-77.53l0.06,0.01c0,0-0.27-27.33-0.53-47.69
		c0-1.11-0.11-1.89-0.25-2.36c-3.03-10.26-13.02-12.37-18.85-12.84c-2.59-0.21-4.48-0.24-4.48-0.24h-239.03
		c-7.84-0.62-13.63-1.46-17.37-2.5c-4.97-1.39-7.45-3.68-7.45-6.89c0-1.39,0.37-2.29,1.12-2.72c8.22,3.63,19.7,5.45,34.44,5.45
		c26.38,0,47.02-7.71,61.91-23.15c14.9-15.43,22.35-37.08,22.35-64.96c0-24.77-5.02-44.8-15.06-60.07
		c-8.01-12.07-18.9-20.82-32.68-26.27c-10.04-3.84-21.15-5.77-33.32-5.77c-12.17,0-22.59,2.43-31.24,7.29
		c-4.97,2.79-9.56,6.44-13.79,10.94c0.05,0.19,0.09,0.37,0.12,0.57c1.07,6.74-1.95,11.47-7.18,15.12c-3.87,2.7-8.37,3.87-12.91,4.83
		c-1.73,0.36-3.48,0.62-5.37,0.96c0.46-6.61,1.42-12.8,4.67-18.39c0.45-0.77,0.95-1.5,1.44-2.25c4.25-5.05,7.5-5.24,12.23-5.41
		c0.03,0,0.08,0.01,0.13,0.01c1.61-1.43,3.48-2.94,5.61-4.53c-4.91-2.56-12.01-3.84-21.31-3.84h-22.75
		c-2.88,4.49-5.18,9.88-6.89,16.18c-1.71,6.3-2.56,12.12-2.56,17.46c0,13.14,3.15,24.14,9.45,33v102.56l-0.1,27.15
		c0,0-0.26,18.12,0.82,31.61c1.01,4.71,4.16,8.6,7.77,10.9c5.15,3.28,11.85,3.8,11.85,3.8h34.61l217.71,0.02l0,0
		c5.96,0,13.53,1.84,19.41,3.57c5.88,1.74,8.82,3.85,8.82,6.33c0,0.99-0.46,1.95-1.37,2.86c-8.11-4.14-17.63-6.21-28.56-6.21
		c-18.46,0-33.63,6.04-45.51,18.13c-11.88,12.09-17.82,28.73-17.82,49.92c0,15.89,3.1,29.43,9.31,40.61
		c5.38,9.77,12.65,17.08,21.79,21.92c9.15,4.84,18.98,7.26,29.49,7.26c7.78,0,14.11-1.45,19-4.35c-1.66-1.24-2.96-2.67-3.91-4.28
		c-0.95-1.61-1.43-3.04-1.43-4.28c0-2.73,1.41-4.1,4.22-4.1c2.24,5.46,6.13,9.77,11.67,12.92c4.72,2.73,10.31,4.1,16.76,4.1
		c9.27,0,17.05-2.9,23.35-8.69c7.12-6.54,10.68-15.69,10.68-27.44v-2.24C1760,729.89,1759.95,729.1,1759.87,728.69z M1495.86,443.87
		c2.35,0,3.95,1.68,4.81,5.05c0.85,3.36,1.28,10.17,1.28,20.42v16.34c0,2.88-0.38,4.91-1.12,6.09c-0.75,1.18-1.98,1.76-3.68,1.76
		c-1.71,0-2.94-0.37-3.68-1.12v-21.47c0-6.41-0.48-14.9-1.44-25.47C1493.08,444.4,1494.36,443.87,1495.86,443.87z M1690.21,698.89
		v16.64c-0.58,0.58-1.53,0.87-2.86,0.87c-1.33,0-2.28-0.45-2.86-1.37c-0.58-0.91-0.87-2.48-0.87-4.72v-12.67
		c0-7.95,0.33-13.22,0.99-15.83c0.66-2.61,1.9-3.91,3.73-3.91c1.16,0,2.15,0.42,2.98,1.24
		C1690.58,684.19,1690.21,690.77,1690.21,698.89z"/>
	<path class="st0" d="M179.94,556.88c11.53,1.55,29.64,2.32,54.31,2.32c35.24,0,61.62-4.75,79.13-14.26
		c18.69-10.15,28.03-26.38,28.03-48.7c0-14.42-3.9-26.48-11.69-36.2c-6.64-8.1-15.29-13.31-25.92-15.63
		c-4.26,4.36-9.5,4.97-15.28,3.5c-4.57-1.16-8.4-3.81-12.09-6.62c-1.4-1.07-2.74-2.23-4.23-3.44c5.3-3.97,10.61-7.28,16.98-8.48
		c0.87-0.16,1.76-0.26,2.64-0.38c6.6-0.08,8.87,2.26,12.09,5.72c0.13,0.17,0.67,1.01,1.14,1.98c3.85,0.58,7.8,1.9,11.87,3.97
		c4.17-3.1,7.37-7.71,9.61-13.86c2.24-6.14,3.36-12.41,3.36-18.82c0-17.73-7.21-32.04-21.63-42.93
		c-16.45-12.39-40.69-18.58-72.73-18.58c-13.46,0-25.79,0.91-37,2.72c-21.57,3.63-36.63,8.71-45.17,15.22
		c-4.06,3.1-6.09,5.87-6.09,8.33v146.9c0,11.75,2.56,20.5,7.69,26.27C160.08,551.68,168.41,555.33,179.94,556.88z M238.33,412.95
		c2.08,0,3.58,0.83,4.49,2.48c0.91,1.66,1.36,4.41,1.36,8.25v0.96c0,3.63-0.54,6.25-1.6,7.85c-1.07,1.6-2.62,2.4-4.65,2.4
		c-2.03,0-3.26-0.16-3.68-0.48v-18.1c0-1.28-0.06-2.19-0.16-2.72C234.83,413.16,236.25,412.95,238.33,412.95z M238.33,471.74
		c2.08,0,3.58,0.86,4.49,2.56c0.91,1.71,1.36,4.54,1.36,8.49v3.04c0,3.52-0.54,5.98-1.6,7.37c-1.07,1.39-2.62,2.08-4.65,2.08
		c-2.03,0-3.26-0.16-3.68-0.48v-19.7c0-1.28-0.06-2.19-0.16-2.72C234.83,471.95,236.25,471.74,238.33,471.74z"/>
	<path class="st0" d="M542.08,483.75c11.24,7.43,25.6,11.78,43.08,13.05c0.02-0.03,0.03-0.05,0.04-0.08
		c3.52-5.85,8.88-7.52,15.23-6.95c4.7,0.42,8.89,2.42,12.99,4.62c1.56,0.83,3.06,1.76,4.72,2.73c-4.6,4.76-9.32,8.88-15.41,11.07
		c-0.84,0.3-1.69,0.54-2.55,0.8c-6.5,1.13-9.12-0.82-12.84-3.73c-0.11-0.11-0.48-0.52-0.91-1.07c-9.79-0.57-19.16-2.27-28.09-5.13
		c-11.16-3.58-19.68-7.82-25.55-12.74c-3.2,2.03-6.09,5.53-8.65,10.49s-3.84,10.44-3.84,16.42c0,16.13,7.13,28.35,21.39,36.68
		c14.26,8.33,33.99,12.5,59.19,12.5c25.2,0,45.33-5.55,60.39-16.66c15.06-11.11,22.59-27.55,22.59-49.34
		c0-13.99-3.74-25.58-11.21-34.76c-6.73-8.11-15.41-14.02-26.03-17.7c-8.33-2.89-17.14-4.63-26.42-5.25
		c-4.35,4.87-9.79,5.61-15.81,4.08c-4.57-1.16-8.4-3.81-12.09-6.62c-1.4-1.07-2.74-2.23-4.23-3.44c5.3-3.97,10.61-7.28,16.98-8.48
		c0.87-0.16,1.76-0.26,2.64-0.38c6.6-0.08,8.87,2.26,12.09,5.72c0.11,0.15,0.55,0.83,0.98,1.66c6.06,0.09,12.81,1.07,20.27,2.95
		c7.85,1.98,14.5,4.46,19.94,7.45c7.15-6.94,10.73-16.93,10.73-29.96c0-8.54-1.02-15-3.04-19.38c-8.12-4.59-17.86-8.27-29.23-11.05
		c-11.37-2.78-23.63-4.17-36.76-4.17c-26.7,0-47.68,6.3-62.96,18.9c-13.78,11.43-20.66,26.38-20.66,44.85
		C519.01,459.3,526.7,473.61,542.08,483.75z"/>
	<path class="st0" d="M1248.07,544.23c11.8,10.73,27.58,16.1,47.34,16.1c13.99,0,24.45-2.35,31.4-7.05
		c-3.74-3.74-5.61-7.1-5.61-10.09c0-3.52,1.81-5.29,5.45-5.29c2.88,7.26,7.69,12.81,14.42,16.66c6.73,3.84,14.15,5.77,22.27,5.77
		c11.96,0,22-3.74,30.12-11.21c9.18-8.44,13.78-20.24,13.78-35.4v-2.88c0-1.49-0.06-2.51-0.16-3.04c-4.27-2.67-7.26-6.35-8.97-11.05
		c-1.71-4.7-2.56-10.89-2.56-18.58v-31.4c0-21.79-6.94-38.61-20.83-50.46c-13.88-11.85-34.39-17.78-61.51-17.78
		c-13.14,0-25.63,1.36-37.48,4.08c-11.85,2.72-21.63,5.85-29.32,9.37c-1.92,3.74-2.88,9.45-2.88,17.14
		c0,13.56,2.62,24.78,7.85,33.64c11.43-6.51,25.2-9.77,41.33-9.77c2.21,0,4.28,0.05,6.25,0.13c0.38-0.57,0.86-1.05,1.45-1.45
		c5.66-3.81,11.23-3.06,16.74,0.14c4.08,2.37,7.04,5.96,9.82,9.67c1.06,1.41,2.03,2.89,3.13,4.47c-6.19,2.37-12.2,4.11-18.65,3.52
		c-0.88-0.08-1.76-0.23-2.64-0.35c-6.37-1.72-7.92-4.59-10.06-8.8c-1.73-0.07-3.47-0.11-5.23-0.11c-18.16,0-32.95,4.75-44.37,14.26
		c-12.5,10.57-18.74,25.5-18.74,44.77c0,2.49,0.1,4.9,0.3,7.24c-3.27-2.52-5.64-5.75-7.08-9.72c-1.71-4.7-2.56-10.89-2.56-18.58
		l0.48-31.24c0-16.12-3.9-29.53-11.69-40.21c-6.52-8.76-15.43-15.27-26.75-19.54c-8.97-3.42-19.06-5.13-30.28-5.13
		s-20.91,1.76-29.08,5.29c-1.07,0.46-2.1,0.94-3.1,1.43c-0.77,6.43-4.78,10.15-10.56,12.36c-4.41,1.69-9.06,1.73-13.7,1.56
		c-1.76-0.07-3.52-0.24-5.44-0.37c2.04-6.3,4.47-12.07,8.98-16.72c0.62-0.64,1.28-1.23,1.94-1.83c5.34-3.87,8.55-3.27,13.18-2.29
		c0.1,0.03,0.39,0.15,0.75,0.31c7.22-3.41,14.7-5.36,22.45-5.81v-15.22c0-10.57-4.54-18.69-13.62-24.35
		c-8.01-4.81-18.16-7.21-30.44-7.21c-7.37,0-14.66,0.96-21.87,2.88c-7.21,1.92-13.38,4.38-18.5,7.37v186.94
		c0,10.57,4.59,19.06,13.78,25.47c7.9,5.66,17.25,8.49,28.03,8.49c18.9,0,33.58-5.39,44.05-16.18c-5.45-9.93-8.17-20.93-8.17-33
		c0-12.07,0.96-23.49,2.88-34.28l-2.08-26.11c1.49-0.85,3.23-1.28,5.21-1.28c1.98,0,3.52,0.91,4.65,2.72
		c1.12,1.82,1.68,4.81,1.68,8.97s-0.16,7.32-0.48,9.45c-0.32,2.14-0.62,4.43-0.88,6.89c-0.27,2.46-0.75,6.54-1.44,12.25
		c-0.7,5.71-1.04,12.31-1.04,19.78c0,17.62,4.86,30.76,14.58,39.41c8.33,7.58,19.2,11.37,32.6,11.37c13.4,0,24.35-4.08,32.84-12.25
		c7.65-7.36,11.84-17.4,12.6-30.09C1235.27,528.52,1240.43,537.27,1248.07,544.23z M1312.39,486h11.69c0,4.38-0.86,7.45-2.56,9.21
		c-1.71,1.76-4.38,2.64-8.01,2.64c-5.23,0-7.85-1.92-7.85-5.77C1305.66,488.03,1307.9,486,1312.39,486z"/>
	<path class="st0" d="M850.12,720.12c-1.33-3.64-1.99-8.44-1.99-14.4v-24.34c0-16.89-5.38-29.93-16.14-39.12
		c-10.76-9.19-26.66-13.78-47.69-13.78c-10.18,0-19.87,1.06-29.06,3.17c-9.19,2.11-16.76,4.53-22.72,7.26
		c-1.49,2.9-2.24,7.33-2.24,13.29c0,10.51,2.03,19.21,6.08,26.08c8.86-5.05,19.54-7.57,32.04-7.57c3.3,0,6.24,0.12,8.84,0.36
		c0.36-0.54,0.82-1.01,1.39-1.39c5.19-3.46,10.23-2.87,15.19-0.12c3.67,2.04,6.3,5.17,8.77,8.43c0.94,1.24,1.8,2.53,2.78,3.91
		c-5.65,2.19-11.13,3.81-16.97,3.38c-0.8-0.06-1.6-0.17-2.39-0.28c-5.75-1.44-7.12-3.96-9.01-7.66c-0.03-0.09-0.12-0.37-0.21-0.74
		c-2.54-0.2-5.12-0.31-7.76-0.31c-14.08,0-25.54,3.68-34.4,11.05c-9.69,8.2-14.53,19.77-14.53,34.71c0,14.94,4.57,26.58,13.72,34.89
		c9.15,8.32,21.38,12.48,36.7,12.48c10.84,0,18.96-1.82,24.34-5.46c-2.9-2.9-4.35-5.5-4.35-7.82c0-2.73,1.41-4.1,4.22-4.1
		c2.24,5.63,5.96,9.93,11.18,12.92c5.22,2.98,10.97,4.47,17.26,4.47c9.27,0,17.05-2.9,23.35-8.69c7.12-6.54,10.68-15.69,10.68-27.44
		v-2.24c0-1.16-0.04-1.94-0.12-2.36C853.76,726.62,851.44,723.76,850.12,720.12z M790.76,718.94c-1.33,1.37-3.4,2.05-6.21,2.05
		c-4.06,0-6.08-1.49-6.08-4.47c0-3.15,1.74-4.72,5.22-4.72h9.06C792.75,715.2,792.08,717.57,790.76,718.94z"/>
	<path class="st0" d="M709.27,721.49c-4.14,2.9-9.62,5.4-16.45,7.51c-6.83,2.11-14.4,3.17-22.73,3.17c-6.05,0-11.63-0.6-16.74-1.78
		c-0.36,0.22-0.64,0.37-0.74,0.42c-3.94,1.32-6.68,2.16-11.79-0.84c-0.64-0.49-1.29-0.96-1.9-1.48c-4.47-3.79-7.25-8.79-9.74-14.3
		c1.66-0.3,3.18-0.62,4.72-0.85c4.04-0.59,8.12-0.99,12.16,0.13c5.47,1.51,9.47,4.62,10.76,10.72c0.1,0.49,0.13,0.98,0.09,1.46
		c3.73,0.62,7.69,0.94,11.88,0.94c15.73,0,28.15-3.39,37.25-10.18c9.85-7.2,14.78-17.88,14.78-32.04c0-15.89-5.98-29.29-17.94-40.17
		c-11.96-10.88-27.84-16.33-47.62-16.33c-19.79,0-36.14,6.08-49.05,18.25c-13.99,13.08-20.99,30.78-20.99,53.09
		c0,22.31,6.79,39.88,20.37,52.71c13.24,12.75,31.33,19.12,54.27,19.12c13.74,0,25.41-1.74,35.02-5.22
		c6.79-2.32,13.41-6.21,19.87-11.67c0.75-2.98,1.12-6.4,1.12-10.25c0-3.85-0.6-8.11-1.8-12.79
		C712.85,726.43,711.26,723.22,709.27,721.49z M657.86,677.77c4.39,0,6.58,1.49,6.58,4.47c0,3.15-2.07,4.72-6.21,4.72
		c-2.98,0-5.63-0.7-7.95-2.11C650.95,680.13,653.47,677.77,657.86,677.77z"/>
	<path class="st0" d="M1341.98,653.37c-0.54-3.68-1.1-6.19-1.68-7.51c-5.71,0.99-13.02,1.49-21.92,1.49c-3.22,0-6.1-0.08-8.68-0.24
		c-0.67,0.54-1.31,0.96-1.46,1.04c-3.84,1.58-6.52,2.6-11.82-0.06c-0.67-0.44-1.35-0.87-2-1.35c-4.71-3.48-7.81-8.29-10.67-13.62
		c1.64-0.41,3.14-0.83,4.65-1.16c3.99-0.86,8.03-1.52,12.14-0.68c5.55,1.14,9.76,3.98,11.45,9.99c0.02,0.09,0.04,0.17,0.06,0.26
		c2.4,0.16,4.7,0.24,6.89,0.24c10.26,0,18.25-1.12,23.97-3.35c2.48-6.46,3.73-13.95,3.73-22.48v-2.36c0-3.89-0.42-7.2-1.24-9.93
		c-3.56-3.81-9.19-7.2-16.89-10.18s-16.76-4.47-27.2-4.47c-14.57,0-26.24,3.64-35.02,10.93c-8.78,7.29-14.16,17.8-16.14,31.54h-10.8
		c-4.8,7.37-7.2,16.1-7.2,26.2c0,10.1,2.4,18.59,7.2,25.46h10.7v32.15h0.1v31.67c0,7.29,3.27,12.79,9.81,16.52
		c5.88,3.56,13.74,5.34,23.59,5.34c12.33,0,23.01-2.86,32.04-8.57v-77.12h22.97c2.81-4.97,4.22-11.26,4.22-18.88
		C1342.79,660.68,1342.52,657.06,1341.98,653.37z"/>
	<path class="st0" d="M907.96,483.75c11.57,7.65,26.45,12.03,44.63,13.15c0.03-0.06,0.06-0.12,0.1-0.18
		c3.52-5.85,8.88-7.52,15.23-6.95c4.7,0.42,8.89,2.42,12.99,4.62c1.56,0.83,3.06,1.76,4.72,2.73c-4.6,4.76-9.32,8.88-15.41,11.07
		c-0.84,0.3-1.69,0.54-2.55,0.8c-6.5,1.13-9.12-0.82-12.84-3.73c-0.1-0.1-0.44-0.48-0.84-0.98c-10.4-0.47-20.33-2.2-29.77-5.22
		c-11.16-3.58-19.68-7.82-25.55-12.74c-3.2,2.03-6.09,5.53-8.65,10.49s-3.84,10.44-3.84,16.42c0,16.13,7.13,28.35,21.39,36.68
		c14.26,8.33,33.99,12.5,59.19,12.5c25.2,0,45.33-5.55,60.39-16.66c15.06-11.11,22.59-27.55,22.59-49.34
		c0-13.99-3.74-25.58-11.21-34.76c-6.73-8.11-15.41-14.02-26.03-17.7c-8.9-3.09-18.35-4.86-28.34-5.36
		c-4.36,4.97-9.84,5.73-15.91,4.19c-4.57-1.16-8.4-3.81-12.09-6.62c-1.4-1.07-2.74-2.23-4.23-3.44c5.3-3.97,10.61-7.28,16.98-8.48
		c0.87-0.16,1.76-0.26,2.64-0.38c6.6-0.08,8.87,2.26,12.09,5.72c0.11,0.15,0.55,0.83,0.97,1.65c0.36,0,0.69,0,1.07,0
		c6.3,0,13.38,0.99,21.23,2.96c7.85,1.98,14.5,4.46,19.94,7.45c7.15-6.94,10.73-16.93,10.73-29.96c0-8.54-1.02-15-3.04-19.38
		c-8.12-4.59-17.86-8.27-29.24-11.05c-11.37-2.78-23.63-4.17-36.76-4.17c-26.7,0-47.69,6.3-62.96,18.9
		c-13.78,11.43-20.66,26.38-20.66,44.85C884.89,459.3,892.58,473.61,907.96,483.75z"/>
	<path class="st0" d="M1166.49,720.12c-1.33-3.64-1.99-8.44-1.99-14.4l0.37-24.21c0-12.5-3.02-22.89-9.07-31.17
		c-5.05-6.79-11.96-11.84-20.74-15.15c-6.95-2.65-14.78-3.97-23.47-3.97s-16.21,1.37-22.54,4.1c-0.39,0.17-0.75,0.34-1.13,0.51
		c0.24,5.44-2.94,9.18-8,11.99c-3.99,2.21-8.54,3.03-13.13,3.67c-1.74,0.24-3.5,0.38-5.41,0.59c0.78-5.85,2.04-11.31,5.55-16.13
		c0.48-0.66,1.02-1.29,1.54-1.93c4.49-4.28,7.75-4.3,12.48-4.22c0.26,0.03,1.7,0.29,2.96,0.73c5.28-2.35,10.73-3.7,16.37-4.03v-11.8
		c0-8.2-3.52-14.49-10.55-18.88c-6.21-3.73-14.08-5.59-23.59-5.59c-5.71,0-11.36,0.75-16.95,2.24s-10.37,3.4-14.34,5.71v144.92
		c0,8.2,3.56,14.78,10.68,19.74c6.12,4.39,13.37,6.58,21.73,6.58c14.65,0,26.04-4.18,34.15-12.54c-4.22-7.7-6.33-16.23-6.33-25.58
		c0-9.35,0.75-18.21,2.23-26.58l-1.61-20.24c1.16-0.66,2.5-0.99,4.04-0.99c1.53,0,2.73,0.7,3.6,2.11c0.87,1.41,1.3,3.73,1.3,6.95
		s-0.12,5.67-0.37,7.33c-0.25,1.66-0.48,3.44-0.68,5.34c-0.21,1.91-0.58,5.07-1.12,9.5c-0.54,4.43-0.81,9.54-0.81,15.34
		c0,13.66,3.77,23.84,11.3,30.55c6.46,5.88,14.88,8.82,25.27,8.82c10.39,0,18.88-3.17,25.46-9.5c6.58-6.33,9.87-15.21,9.87-26.64
		v-2.24c0-1.16-0.04-1.94-0.12-2.36C1170.13,726.62,1167.81,723.76,1166.49,720.12z"/>
	<path class="st0" d="M580.71,720.12c-1.33-3.64-1.99-8.44-1.99-14.4l0.37-24.21c0-12.5-3.02-22.89-9.06-31.17
		c-5.05-6.79-11.96-11.84-20.74-15.15c-6.95-2.65-14.78-3.97-23.47-3.97c-8.69,0-16.21,1.37-22.54,4.1
		c-1.92,0.83-3.69,1.73-5.35,2.68c-0.59,4.29-3.54,7.41-7.9,9.83c-3.99,2.21-8.54,3.03-13.13,3.67c-1.74,0.24-3.5,0.38-5.41,0.59
		c0.78-5.85,2.04-11.31,5.55-16.13c0.48-0.66,1.02-1.29,1.54-1.93c4.49-4.28,7.75-4.3,12.48-4.22c0.33,0.04,2.53,0.43,3.87,1.1
		c0.39,0.19,0.74,0.41,1.06,0.65c5.95-2.99,12.12-4.67,18.53-5.04v-11.8c0-0.6-0.02-1.19-0.06-1.77v-98.59
		c0-10.56-12.49-15.84-12.49-15.84v0.01c-5.34,3.74-12.41,6.97-21.22,9.69c-8.81,2.72-18.58,4.08-29.32,4.08
		c-10.73,0-20.32-1.44-28.75-4.33c-0.2-0.06-0.39-0.13-0.59-0.19c-0.6,0.32-1.11,0.55-1.25,0.6c-4.58,1.16-7.76,1.9-13.26-1.75
		c-0.68-0.58-1.37-1.14-2.01-1.75c-4.69-4.46-7.36-10.12-9.66-16.34c1.91-0.21,3.66-0.46,5.42-0.59c4.63-0.36,9.28-0.51,13.75,1
		c6.04,2.03,10.28,5.72,11.15,12.49c0.03,0.21,0.04,0.42,0.04,0.63c7.07,2.01,14.9,3.02,23.47,3.02c20.29,0,36.31-4.38,48.06-13.14
		c12.71-9.29,19.06-23.07,19.06-41.33c0-20.5-7.72-37.78-23.15-51.82c-15.43-14.04-35.91-21.07-61.43-21.07
		c-25.53,0-46.62,7.85-63.28,23.55c-18.05,16.88-27.07,39.7-27.07,68.48c0,28.78,8.76,51.45,26.27,68
		c17.09,16.45,40.42,24.67,70,24.67c3.74,0,7.35-0.11,10.86-0.31v55.95h0v125.04c0,8.2,3.56,14.78,10.68,19.74
		c6.13,4.39,13.37,6.58,21.73,6.58c14.65,0,26.04-4.18,34.15-12.54c-4.22-7.7-6.33-16.23-6.33-25.58c0-9.35,0.75-18.21,2.24-26.58
		l-1.61-20.24c1.16-0.66,2.5-0.99,4.04-0.99c1.53,0,2.73,0.7,3.6,2.11c0.87,1.41,1.3,3.73,1.3,6.95s-0.12,5.67-0.37,7.33
		c-0.25,1.66-0.48,3.44-0.68,5.34c-0.21,1.91-0.58,5.07-1.12,9.5c-0.54,4.43-0.81,9.54-0.81,15.34c0,13.66,3.77,23.84,11.3,30.55
		c6.46,5.88,14.88,8.82,25.27,8.82c10.39,0,18.88-3.17,25.46-9.5s9.87-15.21,9.87-26.64v-2.24c0-1.16-0.04-1.94-0.12-2.36
		C584.36,726.62,582.04,723.76,580.71,720.12z M435.66,442.1c5.66,0,8.49,1.92,8.49,5.77c0,4.06-2.67,6.09-8.01,6.09
		c-3.84,0-7.26-0.91-10.25-2.72C426.74,445.15,430,442.1,435.66,442.1z"/>
	<path class="st0" d="M1610.93,537.74c17.08,16.45,40.42,24.67,70,24.67c17.73,0,32.78-2.24,45.17-6.73
		c8.76-2.99,17.3-8.01,25.63-15.06c0.96-3.84,1.44-8.25,1.44-13.22s-0.78-10.46-2.32-16.5c-1.55-6.03-3.6-10.17-6.17-12.41
		c-5.34,3.74-12.42,6.97-21.23,9.69c-8.81,2.72-18.58,4.08-29.31,4.08c-10.73,0-20.32-1.44-28.75-4.33
		c-0.36-0.11-0.71-0.23-1.06-0.35c-1.05,0.69-2.22,1.22-2.45,1.31c-4.58,1.16-7.76,1.9-13.26-1.75c-0.68-0.58-1.37-1.14-2.01-1.75
		c-4.69-4.46-7.36-10.12-9.66-16.34c1.91-0.21,3.66-0.46,5.42-0.59c4.63-0.36,9.28-0.51,13.75,1c5.9,1.98,10.07,5.56,11.07,12.03
		c7.54,2.37,15.96,3.57,25.27,3.57c20.29,0,36.31-4.38,48.06-13.14c12.71-9.29,19.06-23.07,19.06-41.33
		c0-20.5-7.72-37.78-23.15-51.82c-15.43-14.04-35.91-21.07-61.43-21.07c-25.53,0-46.62,7.85-63.28,23.55
		c-18.05,16.88-27.07,39.7-27.07,68.48C1584.66,498.52,1593.41,521.19,1610.93,537.74z M1678.37,442.1c5.66,0,8.49,1.92,8.49,5.77
		c0,4.06-2.67,6.09-8.01,6.09c-3.84,0-7.26-0.91-10.25-2.72C1669.45,445.15,1672.71,442.1,1678.37,442.1z"/>
	<path class="st0" d="M1417.27,695.32c20.24,0,40.49,0,60.77,0c-0.92-19.37-7.24-35.28-18.99-47.72
		c-12.83-13.49-29.64-20.24-50.42-20.24c-20.78,0-37.56,6.48-50.36,19.43c-12.79,12.96-19.19,30.63-19.19,53.03
		c0,22.39,6.79,40.13,20.37,53.21c12.33,12,29.06,18.01,50.17,18.01s37.81-6.37,50.11-19.12c11.46-11.88,17.58-27.64,18.35-47.27
		c-20.25,0-40.51,0-60.81,0C1417.27,701.6,1417.27,698.56,1417.27,695.32z M1370.77,704.8c-4.45,0-8.78,0.06-13.11-0.04
		c-1.43-0.03-2.18-0.91-2.26-2.53c-0.37-7.11-0.41-7.11,6.68-7.11c2.81,0,5.62,0,8.69,0
		C1370.77,698.48,1370.77,701.52,1370.77,704.8z M1385.26,719.53c-0.01,3.68-1.43,4.82-5.86,4.84c-3.94,0.02-5.4-1.19-5.43-4.76
		c-0.05-6.67-0.02-13.34-0.02-20.01c-0.01,0-0.01,0-0.02,0c0-6.33-0.02-12.66,0.01-18.99c0.01-3.45,0.62-4.27,3.96-4.75
		c6.08-0.88,7.47,1.03,7.42,5.95C1385.19,694.38,1385.29,706.96,1385.26,719.53z M1400.07,692.51c-0.18,10.87-0.26,21.74-0.39,32.61
		c-0.01,1.11,0,2.23-0.01,3.34c-0.07,5.67-4.63,8.35-9.53,5.37c-1.02-0.62-1.72-2.54-1.74-3.87c-0.14-10.62-0.08-21.24-0.08-31.86
		c0,0-0.01,0-0.01,0c0-10.36-0.03-20.72,0.01-31.09c0.02-5.61,5.46-8.91,10.39-6.08c1.08,0.62,1.88,2.7,1.87,4.1
		C1400.56,674.2,1400.22,683.36,1400.07,692.51z M1415.12,662.4c-0.37,12.32-0.59,24.64-0.88,36.96c-0.06,0-0.12,0-0.18,0
		c0,12.59,0,25.17,0,37.76c0,1.98,0.15,4.19-2.01,5.14c-2.61,1.14-5.42,1.02-7.89-0.43c-0.76-0.45-1.36-1.84-1.36-2.8
		c0.04-18.15,0.14-36.3,0.34-54.44c0.08-7.87,0.41-15.74,0.61-23.61c0.09-3.32,0.64-4.13,3.83-4.62
		C1414.01,655.38,1415.27,657.48,1415.12,662.4z"/>
	<path class="st0" d="M1548.61,627.36c-20.78,0-37.56,6.48-50.36,19.43c-11.92,12.08-18.28,28.26-19.09,48.53
		c19.36,0,38.76,0,58.21,0c0,3.16,0,6.14,0,9.32c-19.41,0-38.79,0-58.19,0c0.92,20.13,7.66,36.26,20.25,48.39
		c12.33,12,29.06,18.01,50.17,18.01s37.81-6.37,50.11-19.12c12.29-12.75,18.44-29.95,18.44-51.6c0-21.65-6.38-39.22-19.12-52.71
		C1586.2,634.11,1569.39,627.36,1548.61,627.36z M1551.41,719.47c-0.2,6.76-0.42,13.53-0.6,20.29c-0.05,2.09-2.15,4.37-5.46,4.11
		c-3.66-0.03-5.91-1.32-5.84-4.96c0.23-11.81,0.55-23.62,0.85-35.43c0.03-1.03,0.1-2.05,0.14-3.08c0-12.5,0-25.01,0-37.51
		c0-1.97-0.18-4.21,1.98-5.16c2.6-1.15,5.49-1.12,7.87,0.43c0.93,0.6,1.42,2.48,1.43,3.79c0.05,7.11,0.1,14.22,0.11,21.33
		C1551.92,693.91,1551.47,719.39,1551.41,719.47z M1566.23,733.11c-0.02,5.44-5.93,8.84-10.51,5.89c-1.03-0.66-1.76-2.59-1.75-3.93
		c0.05-9.33,0.39-18.66,0.54-27.99c0.17-10.87,0.25-21.74,0.37-32.61c0.01-1.03-0.01-2.06,0.01-3.08c0.07-5.51,4.96-8.23,9.65-5.17
		c0.96,0.63,1.6,2.42,1.62,3.69c0.13,10.62,0.07,21.24,0.07,31.86c0.01,0,0.01,0,0.02,0
		C1566.24,712.21,1566.27,722.66,1566.23,733.11z M1580.62,719.5c-0.01,3.29-0.81,4.18-4.07,4.75c-5.23,0.92-7.26-0.7-7.27-5.93
		c-0.02-12.57-0.02-25.15,0-37.72c0.01-3.84,1.44-5,5.99-4.99c3.9,0.01,5.27,1.23,5.33,4.89c0.05,3.34,0.03,6.67,0.04,10.01
		c0,3.25,0,6.5,0,9.75c0,0-0.01,0-0.01,0C1580.63,706.67,1580.65,713.09,1580.62,719.5z M1599.11,701.71
		c0.35,1.63-0.31,3.02-2.16,3.06c-4.33,0.1-8.67,0.03-13.14,0.03c0-3.26,0-6.29,0-9.64c4.44,0,8.91-0.47,13.23,0.14
		C1600.85,695.84,1598.63,699.47,1599.11,701.71z"/>
</g>
</svg>
